<svg width="64" height="64" viewBox="0 0 64 64" fill="none" xmlns="http://www.w3.org/2000/svg">
<rect width="64" height="64" fill="#EF4358"/>
<path d="M53.5514 17.7636C53.5514 15.391 52.822 13.4752 51.3606 12.014C49.9017 10.5549 47.9859 9.82544 45.6109 9.82544C43.2384 9.82544 41.3226 10.5549 39.8637 12.014C38.4023 13.4752 37.6729 15.391 37.6729 17.7636V42.9507C37.6729 45.3233 38.4023 47.239 39.8637 48.7004C41.3226 50.1593 43.2384 50.8912 45.6109 50.8912C47.9859 50.8912 49.9017 50.1593 51.3606 48.7004C52.822 47.239 53.5514 45.3233 53.5514 42.9507V17.7636ZM49.1698 43.3884C49.1698 44.4479 48.8421 45.3042 48.1868 45.9618C47.5291 46.6196 46.6705 46.9472 45.6109 46.9472C44.5538 46.9472 43.6952 46.6196 43.0375 45.9618C42.3821 45.3042 42.0521 44.4479 42.0521 43.3884V17.326C42.0521 16.2688 42.3821 15.4101 43.0375 14.7524C43.6952 14.0947 44.5538 13.767 45.6109 13.767C46.6705 13.767 47.5291 14.0947 48.1868 14.7524C48.8421 15.4101 49.1698 16.2688 49.1698 17.326V43.3884Z" fill="white"/>
<path d="M26.3435 50.0686H30.981L23.6672 25.4794L30.3783 10.6461H25.5518L18.1136 27.1106V10.6461H13.7344V50.0686H18.1136V37.7489L20.876 31.6477L26.3435 50.0686Z" fill="white"/>
<path d="M9.35352 54.449V12.8356L12.6397 9.55183H19.2098V18.0376L21.5608 12.8333L24.8279 9.55183H32.0174L24.7418 25.6289L32.4025 51.182L29.1354 54.449H22.2759L19.2098 44.1169V51.1629L15.9236 54.449H9.35352ZM13.7351 50.0674H18.1144V37.7501L20.8768 31.6464L26.3442 50.0674H30.9818L23.6679 25.4806L30.3791 10.6449H25.5526L18.1144 27.1094V10.6449H13.7351V50.0674Z" fill="#221F20"/>
<path d="M42.3265 55.2701C39.6238 55.2701 37.4426 54.4403 35.7827 52.778C34.1229 51.1181 33.293 48.9393 33.293 46.2367V21.0496C33.293 18.311 34.1133 16.1227 35.7564 14.4795L39.0403 11.1932C40.6834 9.55026 42.8742 8.72986 45.6127 8.72986C48.3129 8.72986 50.4942 9.55975 52.154 11.222C53.8163 12.8818 54.6462 15.0631 54.6462 17.7633V42.9504C54.6462 45.689 53.8258 47.8774 52.1827 49.5205L48.8965 52.8068C47.2534 54.4497 45.065 55.2701 42.3265 55.2701ZM39.863 48.7001C41.322 50.1615 43.2377 50.8909 45.6127 50.8909C47.9853 50.8909 49.901 50.1615 51.3624 48.7001C52.8213 47.2412 53.5508 45.323 53.5508 42.9504V17.7633C53.5508 15.3907 52.8213 13.475 51.3624 12.0136C49.901 10.5547 47.9853 9.82528 45.6127 9.82528C43.2377 9.82528 41.322 10.5547 39.863 12.0136C38.4017 13.475 37.6722 15.3907 37.6722 17.7633V42.9504C37.6722 45.323 38.4017 47.2412 39.863 48.7001ZM48.1862 45.9617C47.5285 46.6193 46.6698 46.947 45.6127 46.947C44.5532 46.947 43.6945 46.6193 43.0392 45.9617C42.3815 45.3039 42.0538 44.4477 42.0538 43.3881V17.3257C42.0538 16.2685 42.3815 15.4098 43.0392 14.7522C43.6945 14.0944 44.5532 13.7668 45.6127 13.7668C46.6698 13.7668 47.5285 14.0944 48.1862 14.7522C48.8415 15.4098 49.1716 16.2685 49.1716 17.3257V43.3881C49.1716 44.4477 48.8415 45.3039 48.1862 45.9617ZM44.7899 45.744V20.6119C44.7899 19.4064 44.2422 18.6219 43.1492 18.256V43.3881C43.1492 44.5936 43.6945 45.3804 44.7899 45.744Z" fill="#221F20"/>
</svg>
